:SAMPLES-PER-SECOND 24
:FULLY-SPECIFIED
:DEGREES
272
root  9.98223 39.327 54.2062 -109.617 81.1835 -110.521
RightUpLeg  -18.4072 -1.25441 -2.35057
RightLeg  24.5142 7.92784 3.7486
RightFoot  -3.79848 -1.63909 23.9469
RightToes  -2.08645e-008 3.77894e-005 6.81332e-007
Spine  3.87717 -3.54941 -5.25947
Spine1  8.06762 -6.2073 9.2368
HEad  -31.1924 -3.64527 -5.17297
LeftShoulder1  4.68904 -10.2062 -28.1563
LeftArm  5.41541 22.9936 -5.02395
LeftForeArm  102.25 -79.9523 -98.6785
LeftHand  -0.638194 -2.95483 9.11254
RightShoulder  3.13341 5.67399 28.1887
RightArm  -13.8111 -29.2994 5.3252
RightForeArm  19.3141 49.0477 11.4887
RightHand  -1.21045 6.17695 -12.4225
LeftUpLeg  -3.98261 -2.52771 1.92682
LeftLeg  36.0154 -3.07725 -2.02618
LeftFoot  -11.9762 0.100583 5.16044
LeftToes  1.24767e-006 1.47042e-008 1.32732e-009
273
root  10.5577 38.7304 54.5794 -143.551 79.2125 -143.741
RightUpLeg  -15.3429 3.09996 -0.725248
RightLeg  25.1791 -2.72067 -1.69939
RightFoot  -5.97933 -0.450364 7.89234
RightToes  -2.08645e-008 3.77894e-005 6.81332e-007
Spine  3.8885 -3.59352 -4.65497
Spine1  8.13379 -5.95782 8.0351
HEad  -31.7333 -6.08388 -5.47853
LeftShoulder1  4.32533 -9.52061 -27.1358
LeftArm  1.03484 20.9763 -4.75401
LeftForeArm  122.463 -78.5689 -119.649
LeftHand  -0.619917 -2.04294 9.87752
RightShoulder  2.98001 5.37589 27.5938
RightArm  -15.6798 -25.9861 5.60673
RightForeArm  20.3508 52.6784 13.1356
RightHand  -1.20124 5.57091 -12.9775
LeftUpLeg  -5.24852 4.24053 2.41329
LeftLeg  41.3966 -3.43921 -2.87308
LeftFoot  -13.7345 0.146402 3.15998
LeftToes  1.24767e-006 1.47042e-008 1.32732e-009
274
root  10.962 38.1428 54.8039 -156.07 76.217 -155.201
RightUpLeg  -15.1157 4.61247 -0.655629
RightLeg  30.1944 -8.11582 -5.32164
RightFoot  -10.3755 -0.0928547 3.56893
RightToes  -2.08645e-008 3.77894e-005 6.81332e-007
Spine  4.15006 -3.55181 -1.22549
Spine1  9.25938 -5.02828 3.96169
HEad  -34.1154 -8.41588 -4.80668
LeftShoulder1  4.51062 -9.61237 -28.3492
LeftArm  -4.93836 18.6331 -5.84284
LeftForeArm  137.336 -76.6814 -132.727
LeftHand  -0.607704 -1.56345 10.3153
RightShoulder  3.02963 5.37294 28.179
RightArm  -18.4674 -19.4482 8.34993
RightForeArm  20.9541 53.342 13.4371
RightHand  -1.33068 5.64468 -14.2317
LeftUpLeg  -9.51972 10.2279 4.59493
LeftLeg  52.1089 -4.81383 -6.17263
LeftFoot  -10.8006 0.0306503 1.56344
LeftToes  1.24767e-006 1.47042e-008 1.32732e-009
275
root  11.12 37.8474 54.763 -158.2 74.4653 -156.945
RightUpLeg  -15.5158 -1.35239 -1.42782
RightLeg  33.0211 -2.82296 -2.21915
RightFoot  -12.8926 0.00471791 6.80959
RightToes  -2.08645e-008 3.77894e-005 6.81332e-007
Spine  4.19491 -3.31209 3.05224
Spine1  10.1545 -3.83273 0.585985
HEad  -36.0555 -10.2647 -3.1865
LeftShoulder1  5.16075 -10.5169 -30.8055
LeftArm  -11.1373 18.8785 -11.3105
LeftForeArm  144.69 -75.805 -137.325
LeftHand  -0.655292 -1.62516 11.0141
RightShoulder  3.13151 5.60789 28.4232
RightArm  -17.5454 -11.4385 13.0432
RightForeArm  20.4108 52.6484 13.1187
RightHand  -1.40818 5.73875 -14.9166
LeftUpLeg  -16.3915 16.4257 6.98415
LeftLeg  62.6982 -4.62185 -9.03642
LeftFoot  -0.884935 0.455846 -4.92371
LeftToes  1.24767e-006 1.47042e-008 1.32732e-009
276
root  11.1707 37.8955 54.5394 -156.785 74.7599 -155.513
RightUpLeg  -14.7102 -5.5903 -2.00516
RightLeg  31.7327 1.71326 0.899063
RightFoot  -12.7789 -0.00508673 6.39459
RightToes  -2.08645e-008 3.77894e-005 6.81332e-007
Spine  5.13582 -2.20217 5.46084
Spine1  9.01693 -2.22768 0.549471
HEad  -36.0939 -11.5998 -0.78488
LeftShoulder1  5.98519 -11.6215 -33.574
LeftArm  -14.4005 21.8735 -20.0016
LeftForeArm  144.736 -75.6142 -137.916
LeftHand  -0.756751 -1.56649 12.7849
RightShoulder  3.17813 5.75552 28.3766
RightArm  -10.9436 -5.37911 18.7847
RightForeArm  21.2271 54.8074 14.2442
RightHand  -1.29508 6.57696 -12.8551
LeftUpLeg  -22.0495 23.3306 8.70726
LeftLeg  68.4404 -3.82089 -9.82118
LeftFoot  11.1147 2.79144 -14.4369
LeftToes  1.24767e-006 1.47042e-008 1.32732e-009
277
root  11.2672 38.2251 54.1605 -155.873 76.8718 -155.031
RightUpLeg  -13.3359 -2.43353 -3.10917
RightLeg  27.935 0.526944 0.0933136
RightFoot  -11.3907 -0.0770214 6.74428
RightToes  -2.08645e-008 3.77894e-005 6.81332e-007
Spine  6.3919 -1.00507 6.38241
Spine1  6.43475 -0.426135 -0.779972
HEad  -35.539 -12.5539 2.14179
LeftShoulder1  6.47142 -12.1609 -35.2933
LeftArm  -14.4633 27.3582 -28.4443
LeftForeArm  143.734 -75.3137 -138.605
LeftHand  -0.792999 -1.8804 12.8376
RightShoulder  3.31759 5.91477 29.2982
RightArm  -1.26637 -2.03586 24.5998
RightForeArm  29.1871 60.8356 17.5967
RightHand  -0.922957 7.87354 -8.40791
LeftUpLeg  -24.7236 27.8927 9.2301
LeftLeg  70.0019 -3.28158 -9.13302
LeftFoot  15.1194 4.59556 -19.8992
LeftToes  1.24767e-006 1.47042e-008 1.32732e-009
278
root  11.4161 38.761 53.5792 -157.508 78.6376 -158.199
RightUpLeg  -11.9296 2.45063 -5.07271
RightLeg  22.2493 -2.64133 -1.30778
RightFoot  -8.82595 -0.273848 9.5578
RightToes  -2.08645e-008 3.77894e-005 6.81332e-007
Spine  5.4917 -0.684716 6.60545
Spine1  5.34729 0.457077 -3.612
HEad  -36.0802 -13.9982 5.47236
LeftShoulder1  6.56367 -12.2496 -35.6348
LeftArm  -14.3389 34.296 -35.2728
LeftForeArm  151.42 -74.2681 -142.801
LeftHand  -0.620511 -3.08187 8.74849
RightShoulder  3.57256 6.21578 30.8571
RightArm  8.17392 -1.04559 29.7657
RightForeArm  41.7835 68.9482 25.268
RightHand  -0.556886 8.19644 -5.11715
LeftUpLeg  -26.1855 27.1493 8.787
LeftLeg  68.4836 -2.83092 -7.11808
LeftFoot  10.37 3.89149 -20.4333
LeftToes  1.24767e-006 1.47042e-008 1.32732e-009
279
root  11.5746 39.1865 52.8967 -161.54 79.4422 -164.167
RightUpLeg  -10.4475 1.50932 -7.00143
RightLeg  16.004 -1.53324 -1.68498
RightFoot  -6.32235 -0.4995 10.3857
RightToes  -2.08645e-008 3.77894e-005 6.81332e-007
Spine  2.98459 -0.41506 4.9306
Spine1  5.9069 0.672732 -3.84133
HEad  -37.4141 -17.0736 8.87202
LeftShoulder1  6.69586 -12.4985 -35.8069
LeftArm  -14.6519 40.117 -39.4079
LeftForeArm  162.219 -72.8225 -147.71
LeftHand  -0.35959 -4.14498 4.65544
RightShoulder  3.73347 6.37994 31.8871
RightArm  15.4528 -2.95426 33.4448
RightForeArm  60.368 76.807 44.8852
RightHand  -0.435502 8.25929 -4.07294
LeftUpLeg  -26.4987 22.4054 9.19426
LeftLeg  64.07 -2.03384 -3.90601
LeftFoot  6.26986 2.78854 -18.1194
LeftToes  1.24767e-006 1.47042e-008 1.32732e-009
280
root  11.6441 39.3034 52.1684 -163.728 80.5659 -167.463
RightUpLeg  -9.31954 -3.09841 -8.52741
RightLeg  11.473 3.50604 -1.64817
RightFoot  -5.14418 -0.671119 11.7277
RightToes  -2.08645e-008 3.77894e-005 6.81332e-007
Spine  2.27751 0.153898 2.7717
Spine1  5.23439 0.986429 -2.7906
HEad  -38.4883 -21.2998 11.9868
LeftShoulder1  6.87912 -12.8286 -36.0754
LeftArm  -12.8273 43.7906 -39.6641
LeftForeArm  166.132 -71.5631 -150.519
LeftHand  -0.247977 -4.45692 3.21007
RightShoulder  3.7992 6.38094 32.5517
RightArm  20.5618 -6.32341 35.289
RightForeArm  99.4724 80.5031 86.3444
RightHand  -0.316709 7.79329 -3.14497
LeftUpLeg  -24.6042 15.8545 11.6288
LeftLeg  57.6753 -0.728832 -0.721468
LeftFoot  4.09165 1.89293 -14.0521
LeftToes  1.24767e-006 1.47042e-008 1.32732e-009
281
root  11.5468 39.0376 51.2842 -157.148 82.5949 -161.225
RightUpLeg  -10.1131 -3.79336 -9.68877
RightLeg  11.2331 6.22066 -1.08325
RightFoot  -5.78884 -0.749953 14.6113
RightToes  -2.08645e-008 3.77894e-005 6.81332e-007
Spine  3.62814 0.408352 2.61713
Spine1  3.3817 1.17134 -2.49671
HEad  -39.7397 -25.0382 14.9554
LeftShoulder1  7.0113 -12.9926 -36.4475
LeftArm  -8.68824 45.2545 -36.9366
LeftForeArm  164.101 -70.6305 -151.692
LeftHand  -0.301328 -4.07363 3.97586
RightShoulder  3.93659 6.51029 33.4247
RightArm  24.1976 -8.30216 36.1041
RightForeArm  131.861 79.342 118.115
RightHand  -0.102366 7.5171 -1.29198
LeftUpLeg  -21.2602 8.23213 15.2649
LeftLeg  50.1115 1.07135 1.79188
LeftFoot  -0.0100664 0.805834 -7.97376
LeftToes  1.24767e-006 1.47042e-008 1.32732e-009
282
root  11.3642 38.6025 50.2902 -136.049 85.1801 -140.369
RightUpLeg  -12.7344 0.860687 -11.1001
RightLeg  13.6756 4.9994 -0.505489
RightFoot  -6.46347 -0.712478 15.5856
RightToes  -2.08645e-008 3.77894e-005 6.81332e-007
Spine  4.42701 0.294774 1.94759
Spine1  2.95931 0.872398 -1.78204
HEad  -41.4652 -27.3446 17.4899
LeftShoulder1  7.15031 -13.0806 -37.0422
LeftArm  -4.21306 44.1037 -33.411
LeftForeArm  161.345 -70.9004 -150.897
LeftHand  -0.439475 -3.85613 5.78069
RightShoulder  4.09369 6.72332 34.1379
RightArm  25.5573 -8.71423 37.2928
RightForeArm  134.261 79.1618 120.056
RightHand  -0.0696791 8.0976 -0.975037
LeftUpLeg  -17.0957 -2.27971 18.3167
LeftLeg  41.7937 0.723562 1.10769
LeftFoot  -4.75424 0.324659 -4.80409
LeftToes  1.24767e-006 1.47042e-008 1.32732e-009
283
root  11.1267 37.9335 49.0791 -92.6621 86.199 -97.2959
RightUpLeg  -17.0106 7.36102 -13.8076
RightLeg  18.1883 1.56838 0.34861
RightFoot  -7.14041 -0.65485 16.4175
RightToes  -2.08645e-008 3.77894e-005 6.81332e-007
Spine  4.28968 -0.26608 0.242993
Spine1  3.68347 -0.148952 0.333285
HEad  -42.0316 -28.1213 18.5598
LeftShoulder1  7.3062 -13.2141 -37.6105
LeftArm  0.680884 40.6759 -29.827
LeftForeArm  158.479 -72.4563 -147.814
LeftHand  -0.511621 -3.66553 6.81884
RightShoulder  4.15628 6.80853 34.4115
RightArm  24.0231 -9.45225 38.7103
RightForeArm  112.513 80.3736 99.5752
RightHand  -0.292429 7.95898 -2.91108
LeftUpLeg  -13.67 -17.2269 19.9166
LeftLeg  36.6936 -2.10621 -1.31513
LeftFoot  -13.0574 -0.0638375 -9.45459
LeftToes  1.24767e-006 1.47042e-008 1.32732e-009
